<svg width="32" height="32" viewBox="0 0 32 32" fill="none" xmlns="http://www.w3.org/2000/svg">
<path d="M6.66699 5.33398H8.66699L12.0003 21.334M12.0003 21.334H22.667M12.0003 21.334C11.2931 21.334 10.6148 21.6149 10.1147 22.115C9.61461 22.6151 9.33366 23.2934 9.33366 24.0007C9.33366 24.7079 9.61461 25.3862 10.1147 25.8863C10.6148 26.3864 11.2931 26.6673 12.0003 26.6673C12.7076 26.6673 13.3858 26.3864 13.8859 25.8863C14.386 25.3862 14.667 24.7079 14.667 24.0007C14.667 23.2934 14.386 22.6151 13.8859 22.115C13.3858 21.6149 12.7076 21.334 12.0003 21.334ZM22.667 21.334C21.9597 21.334 21.2815 21.6149 20.7814 22.115C20.2813 22.6151 20.0003 23.2934 20.0003 24.0007C20.0003 24.7079 20.2813 25.3862 20.7814 25.8863C21.2815 26.3864 21.9597 26.6673 22.667 26.6673C23.3742 26.6673 24.0525 26.3864 24.5526 25.8863C25.0527 25.3862 25.3337 24.7079 25.3337 24.0007C25.3337 23.2934 25.0527 22.6151 24.5526 22.115C24.0525 21.6149 23.3742 21.334 22.667 21.334ZM11.3337 17.334H23.667L25.3337 9.33398H9.74966" stroke="#462888" stroke-width="2.66667" stroke-linecap="round" stroke-linejoin="round"/>
</svg>
