<svg xmlns="http://www.w3.org/2000/svg" xmlns:xlink="http://www.w3.org/1999/xlink" width="500" zoomAndPan="magnify" viewBox="0 0 375 374.999991" height="500" preserveAspectRatio="xMidYMid meet" version="1.0"><defs><g/><clipPath id="34cd146a0a"><path d="M 46.097656 182.667969 L 307.9375 182.667969 L 307.9375 203.640625 L 46.097656 203.640625 Z M 46.097656 182.667969 " clip-rule="nonzero"/></clipPath></defs><rect x="-37.5" width="450" fill="#ffffff" y="-37.499999" height="449.999989" fill-opacity="1"/><rect x="-37.5" width="450" fill="#ffffff" y="-37.499999" height="449.999989" fill-opacity="1"/><path stroke-linecap="butt" transform="matrix(0, -0.75, 0.75, 0, 182.293793, 249.345744)" fill="none" stroke-linejoin="miter" d="M -0.0025491 5.498902 L 147.867252 5.498902 " stroke="#f1be07" stroke-width="11" stroke-opacity="1" stroke-miterlimit="4"/><g fill="#000000" fill-opacity="1"><g transform="translate(58.820892, 258.001061)"><g><path d="M 50.890625 -121.296875 L 50.890625 -117.875 C 47.003906 -117.757812 44.0625 -117.328125 42.0625 -116.578125 C 40.0625 -115.835938 38.71875 -114.46875 38.03125 -112.46875 C 37.34375 -110.476562 37 -107.367188 37 -103.140625 L 37 -18.15625 C 37 -14.050781 37.34375 -10.96875 38.03125 -8.90625 C 38.71875 -6.851562 40.0625 -5.507812 42.0625 -4.875 C 44.0625 -4.25 47.003906 -3.9375 50.890625 -3.9375 L 63.390625 -3.9375 C 68.753906 -3.9375 73.117188 -4.503906 76.484375 -5.640625 C 79.859375 -6.785156 82.546875 -8.585938 84.546875 -11.046875 C 86.546875 -13.503906 88.054688 -16.785156 89.078125 -20.890625 C 90.109375 -25.003906 90.910156 -30.035156 91.484375 -35.984375 L 95.4375 -35.984375 C 95.09375 -32.441406 94.921875 -27.757812 94.921875 -21.9375 C 94.921875 -19.757812 95.003906 -16.644531 95.171875 -12.59375 C 95.347656 -8.539062 95.660156 -4.34375 96.109375 0 C 90.285156 -0.226562 83.71875 -0.367188 76.40625 -0.421875 C 69.101562 -0.484375 62.59375 -0.515625 56.875 -0.515625 C 54.363281 -0.515625 51.140625 -0.515625 47.203125 -0.515625 C 43.265625 -0.515625 39.007812 -0.484375 34.4375 -0.421875 C 29.863281 -0.367188 25.234375 -0.3125 20.546875 -0.25 C 15.867188 -0.195312 11.421875 -0.113281 7.203125 0 L 7.203125 -3.421875 C 11.078125 -3.648438 14.015625 -4.109375 16.015625 -4.796875 C 18.015625 -5.484375 19.359375 -6.851562 20.046875 -8.90625 C 20.734375 -10.96875 21.078125 -14.050781 21.078125 -18.15625 L 21.078125 -103.140625 C 21.078125 -107.367188 20.734375 -110.476562 20.046875 -112.46875 C 19.359375 -114.46875 18.015625 -115.835938 16.015625 -116.578125 C 14.015625 -117.328125 11.078125 -117.757812 7.203125 -117.875 L 7.203125 -121.296875 C 9.597656 -121.179688 12.734375 -121.066406 16.609375 -120.953125 C 20.492188 -120.835938 24.664062 -120.78125 29.125 -120.78125 C 33.125 -120.78125 37.09375 -120.835938 41.03125 -120.953125 C 44.96875 -121.066406 48.253906 -121.179688 50.890625 -121.296875 Z M 50.890625 -121.296875 "/></g></g></g><g fill="#000000" fill-opacity="1"><g transform="translate(209.762133, 258.001061)"><g><path d="M 101.421875 -121.296875 C 100.960938 -116.960938 100.648438 -112.765625 100.484375 -108.703125 C 100.316406 -104.648438 100.234375 -101.539062 100.234375 -99.375 C 100.234375 -96.632812 100.285156 -94.0625 100.390625 -91.65625 C 100.503906 -89.257812 100.617188 -87.148438 100.734375 -85.328125 L 96.796875 -85.328125 C 95.992188 -93.316406 94.90625 -99.625 93.53125 -104.25 C 92.164062 -108.875 89.769531 -112.210938 86.34375 -114.265625 C 82.914062 -116.328125 77.609375 -117.359375 70.421875 -117.359375 L 61.171875 -117.359375 L 61.171875 -19.875 C 61.171875 -15.300781 61.597656 -11.875 62.453125 -9.59375 C 63.304688 -7.3125 64.988281 -5.769531 67.5 -4.96875 C 70.007812 -4.164062 73.664062 -3.648438 78.46875 -3.421875 L 78.46875 0 C 75.5 -0.226562 71.726562 -0.367188 67.15625 -0.421875 C 62.59375 -0.484375 57.96875 -0.515625 53.28125 -0.515625 C 48.144531 -0.515625 43.316406 -0.484375 38.796875 -0.421875 C 34.285156 -0.367188 30.660156 -0.226562 27.921875 0 L 27.921875 -3.421875 C 32.722656 -3.648438 36.378906 -4.164062 38.890625 -4.96875 C 41.398438 -5.769531 43.082031 -7.3125 43.9375 -9.59375 C 44.800781 -11.875 45.234375 -15.300781 45.234375 -19.875 L 45.234375 -117.359375 L 35.984375 -117.359375 C 28.898438 -117.359375 23.613281 -116.328125 20.125 -114.265625 C 16.644531 -112.210938 14.21875 -108.875 12.84375 -104.25 C 11.476562 -99.625 10.394531 -93.316406 9.59375 -85.328125 L 5.65625 -85.328125 C 5.882812 -87.148438 6.023438 -89.257812 6.078125 -91.65625 C 6.140625 -94.0625 6.171875 -96.632812 6.171875 -99.375 C 6.171875 -101.539062 6.082031 -104.648438 5.90625 -108.703125 C 5.738281 -112.765625 5.425781 -116.960938 4.96875 -121.296875 C 9.769531 -121.179688 14.992188 -121.066406 20.640625 -120.953125 C 26.296875 -120.835938 31.976562 -120.78125 37.6875 -120.78125 C 43.40625 -120.78125 48.601562 -120.78125 53.28125 -120.78125 C 57.96875 -120.78125 63.132812 -120.78125 68.78125 -120.78125 C 74.4375 -120.78125 80.117188 -120.835938 85.828125 -120.953125 C 91.546875 -121.066406 96.742188 -121.179688 101.421875 -121.296875 Z M 101.421875 -121.296875 "/></g></g></g><g clip-path="url(#34cd146a0a)"><path fill="#ffffff" d="M 46.097656 182.667969 L 307.9375 182.667969 L 307.9375 203.640625 L 46.097656 203.640625 Z M 46.097656 182.667969 " fill-opacity="1" fill-rule="nonzero"/></g></svg>