<svg xmlns="http://www.w3.org/2000/svg" xmlns:xlink="http://www.w3.org/1999/xlink" width="500" zoomAndPan="magnify" viewBox="0 0 375 374.999991" height="500" preserveAspectRatio="xMidYMid meet" version="1.0"><defs><g/><clipPath id="cfa77807b1"><path d="M 41.707031 182.667969 L 303.542969 182.667969 L 303.542969 203.640625 L 41.707031 203.640625 Z M 41.707031 182.667969 " clip-rule="nonzero"/></clipPath></defs><rect x="-37.5" width="450" fill="#ffffff" y="-37.499999" height="449.999989" fill-opacity="1"/><rect x="-37.5" width="450" fill="#000000" y="-37.499999" height="449.999989" fill-opacity="1"/><path stroke-linecap="butt" transform="matrix(0, -0.75, 0.75, 0, 177.900785, 249.345744)" fill="none" stroke-linejoin="miter" d="M -0.0025491 5.502079 L 147.867252 5.502079 " stroke="#f1be07" stroke-width="11" stroke-opacity="1" stroke-miterlimit="4"/><g fill="#ffffff" fill-opacity="1"><g transform="translate(37.041506, 269.629252)"><g><path d="M 59.5 -141.828125 L 59.5 -137.828125 C 54.957031 -137.691406 51.515625 -137.1875 49.171875 -136.3125 C 46.835938 -135.445312 45.269531 -133.847656 44.46875 -131.515625 C 43.664062 -129.179688 43.265625 -125.539062 43.265625 -120.59375 L 43.265625 -21.234375 C 43.265625 -16.421875 43.664062 -12.8125 44.46875 -10.40625 C 45.269531 -8.007812 46.835938 -6.441406 49.171875 -5.703125 C 51.515625 -4.972656 54.957031 -4.609375 59.5 -4.609375 L 74.125 -4.609375 C 80.394531 -4.609375 85.5 -5.273438 89.4375 -6.609375 C 93.382812 -7.941406 96.523438 -10.046875 98.859375 -12.921875 C 101.203125 -15.796875 102.972656 -19.632812 104.171875 -24.4375 C 105.367188 -29.25 106.300781 -35.125 106.96875 -42.0625 L 111.578125 -42.0625 C 111.179688 -37.925781 110.984375 -32.453125 110.984375 -25.640625 C 110.984375 -23.097656 111.082031 -19.457031 111.28125 -14.71875 C 111.476562 -9.976562 111.847656 -5.070312 112.390625 0 C 105.578125 -0.269531 97.894531 -0.4375 89.34375 -0.5 C 80.800781 -0.5625 73.191406 -0.59375 66.515625 -0.59375 C 63.578125 -0.59375 59.800781 -0.59375 55.1875 -0.59375 C 50.582031 -0.59375 45.609375 -0.5625 40.265625 -0.5 C 34.921875 -0.4375 29.507812 -0.367188 24.03125 -0.296875 C 18.5625 -0.234375 13.351562 -0.132812 8.40625 0 L 8.40625 -4 C 12.945312 -4.269531 16.382812 -4.804688 18.71875 -5.609375 C 21.0625 -6.410156 22.632812 -8.007812 23.4375 -10.40625 C 24.238281 -12.8125 24.640625 -16.421875 24.640625 -21.234375 L 24.640625 -120.59375 C 24.640625 -125.539062 24.238281 -129.179688 23.4375 -131.515625 C 22.632812 -133.847656 21.0625 -135.445312 18.71875 -136.3125 C 16.382812 -137.1875 12.945312 -137.691406 8.40625 -137.828125 L 8.40625 -141.828125 C 11.21875 -141.691406 14.894531 -141.554688 19.4375 -141.421875 C 23.976562 -141.296875 28.851562 -141.234375 34.0625 -141.234375 C 38.726562 -141.234375 43.363281 -141.296875 47.96875 -141.421875 C 52.582031 -141.554688 56.425781 -141.691406 59.5 -141.828125 Z M 59.5 -141.828125 "/></g></g></g><g fill="#ffffff" fill-opacity="1"><g transform="translate(213.527647, 269.629252)"><g><path d="M 118.59375 -141.828125 C 118.0625 -136.753906 117.691406 -131.847656 117.484375 -127.109375 C 117.285156 -122.367188 117.1875 -118.726562 117.1875 -116.1875 C 117.1875 -112.976562 117.253906 -109.972656 117.390625 -107.171875 C 117.523438 -104.367188 117.660156 -101.898438 117.796875 -99.765625 L 113.1875 -99.765625 C 112.25 -109.109375 110.976562 -116.484375 109.375 -121.890625 C 107.769531 -127.304688 104.960938 -131.210938 100.953125 -133.609375 C 96.953125 -136.015625 90.742188 -137.21875 82.328125 -137.21875 L 71.515625 -137.21875 L 71.515625 -23.234375 C 71.515625 -17.890625 72.015625 -13.882812 73.015625 -11.21875 C 74.015625 -8.550781 75.984375 -6.75 78.921875 -5.8125 C 81.867188 -4.875 86.144531 -4.269531 91.75 -4 L 91.75 0 C 88.28125 -0.269531 83.875 -0.4375 78.53125 -0.5 C 73.1875 -0.5625 67.773438 -0.59375 62.296875 -0.59375 C 56.285156 -0.59375 50.644531 -0.5625 45.375 -0.5 C 40.101562 -0.4375 35.863281 -0.269531 32.65625 0 L 32.65625 -4 C 38.257812 -4.269531 42.53125 -4.875 45.46875 -5.8125 C 48.40625 -6.75 50.375 -8.550781 51.375 -11.21875 C 52.382812 -13.882812 52.890625 -17.890625 52.890625 -23.234375 L 52.890625 -137.21875 L 42.0625 -137.21875 C 33.789062 -137.21875 27.613281 -136.015625 23.53125 -133.609375 C 19.457031 -131.210938 16.617188 -127.304688 15.015625 -121.890625 C 13.421875 -116.484375 12.15625 -109.109375 11.21875 -99.765625 L 6.609375 -99.765625 C 6.878906 -101.898438 7.046875 -104.367188 7.109375 -107.171875 C 7.179688 -109.972656 7.21875 -112.976562 7.21875 -116.1875 C 7.21875 -118.726562 7.113281 -122.367188 6.90625 -127.109375 C 6.707031 -131.847656 6.34375 -136.753906 5.8125 -141.828125 C 11.414062 -141.691406 17.523438 -141.554688 24.140625 -141.421875 C 30.753906 -141.296875 37.398438 -141.234375 44.078125 -141.234375 C 50.753906 -141.234375 56.828125 -141.234375 62.296875 -141.234375 C 67.773438 -141.234375 73.816406 -141.234375 80.421875 -141.234375 C 87.035156 -141.234375 93.679688 -141.296875 100.359375 -141.421875 C 107.035156 -141.554688 113.113281 -141.691406 118.59375 -141.828125 Z M 118.59375 -141.828125 "/></g></g></g><g clip-path="url(#cfa77807b1)"><path fill="#000000" d="M 41.707031 182.667969 L 303.546875 182.667969 L 303.546875 203.640625 L 41.707031 203.640625 Z M 41.707031 182.667969 " fill-opacity="1" fill-rule="nonzero"/></g></svg>