<svg xmlns="http://www.w3.org/2000/svg" xmlns:xlink="http://www.w3.org/1999/xlink" width="500" zoomAndPan="magnify" viewBox="0 0 375 374.999991" height="500" preserveAspectRatio="xMidYMid meet" version="1.0"><defs><g/><clipPath id="d5b27a7ed0"><path d="M 78.652344 170.597656 L 298.597656 170.597656 L 298.597656 196.210938 L 78.652344 196.210938 Z M 78.652344 170.597656 " clip-rule="nonzero"/></clipPath></defs><rect x="-37.5" width="450" fill="#ffffff" y="-37.499999" height="449.999989" fill-opacity="1"/><rect x="-37.5" width="450" fill="#27272b" y="-37.499999" height="449.999989" fill-opacity="1"/><path stroke-linecap="butt" transform="matrix(0.00181951, -0.749998, 0.749998, 0.00181951, 185.623644, 247.608236)" fill="none" stroke-linejoin="miter" d="M 0.000555104 3.001816 L 206.094919 3.001828 " stroke="#f1be07" stroke-width="6" stroke-opacity="1" stroke-miterlimit="4"/><g fill="#ffffff" fill-opacity="1"><g transform="translate(97.305863, 222.215537)"><g><path d="M 35.671875 -85.03125 L 35.671875 -82.625 C 32.941406 -82.539062 30.875 -82.238281 29.46875 -81.71875 C 28.070312 -81.195312 27.132812 -80.234375 26.65625 -78.828125 C 26.175781 -77.429688 25.9375 -75.253906 25.9375 -72.296875 L 25.9375 -12.734375 C 25.9375 -9.847656 26.175781 -7.679688 26.65625 -6.234375 C 27.132812 -4.796875 28.070312 -3.859375 29.46875 -3.421875 C 30.875 -2.984375 32.941406 -2.765625 35.671875 -2.765625 L 44.4375 -2.765625 C 48.195312 -2.765625 51.257812 -3.160156 53.625 -3.953125 C 55.988281 -4.753906 57.867188 -6.015625 59.265625 -7.734375 C 60.671875 -9.460938 61.734375 -11.765625 62.453125 -14.640625 C 63.171875 -17.523438 63.726562 -21.050781 64.125 -25.21875 L 66.890625 -25.21875 C 66.648438 -22.738281 66.53125 -19.457031 66.53125 -15.375 C 66.53125 -13.851562 66.585938 -11.671875 66.703125 -8.828125 C 66.828125 -5.984375 67.050781 -3.039062 67.375 0 C 63.289062 -0.15625 58.6875 -0.253906 53.5625 -0.296875 C 48.4375 -0.335938 43.875 -0.359375 39.875 -0.359375 C 38.113281 -0.359375 35.847656 -0.359375 33.078125 -0.359375 C 30.316406 -0.359375 27.332031 -0.335938 24.125 -0.296875 C 20.925781 -0.253906 17.6875 -0.210938 14.40625 -0.171875 C 11.125 -0.140625 8.003906 -0.0820312 5.046875 0 L 5.046875 -2.40625 C 7.765625 -2.5625 9.820312 -2.878906 11.21875 -3.359375 C 12.625 -3.835938 13.566406 -4.796875 14.046875 -6.234375 C 14.523438 -7.679688 14.765625 -9.847656 14.765625 -12.734375 L 14.765625 -72.296875 C 14.765625 -75.253906 14.523438 -77.429688 14.046875 -78.828125 C 13.566406 -80.234375 12.625 -81.195312 11.21875 -81.71875 C 9.820312 -82.238281 7.765625 -82.539062 5.046875 -82.625 L 5.046875 -85.03125 C 6.722656 -84.945312 8.921875 -84.863281 11.640625 -84.78125 C 14.367188 -84.707031 17.296875 -84.671875 20.421875 -84.671875 C 23.222656 -84.671875 26.003906 -84.707031 28.765625 -84.78125 C 31.523438 -84.863281 33.828125 -84.945312 35.671875 -85.03125 Z M 35.671875 -85.03125 "/></g></g></g><g fill="#ffffff" fill-opacity="1"><g transform="translate(203.111085, 222.215537)"><g><path d="M 71.09375 -85.03125 C 70.769531 -81.988281 70.546875 -79.046875 70.421875 -76.203125 C 70.304688 -73.359375 70.25 -71.175781 70.25 -69.65625 C 70.25 -67.726562 70.289062 -65.925781 70.375 -64.25 C 70.457031 -62.570312 70.535156 -61.09375 70.609375 -59.8125 L 67.859375 -59.8125 C 67.296875 -65.414062 66.53125 -69.835938 65.5625 -73.078125 C 64.601562 -76.316406 62.921875 -78.65625 60.515625 -80.09375 C 58.117188 -81.539062 54.398438 -82.265625 49.359375 -82.265625 L 42.875 -82.265625 L 42.875 -13.9375 C 42.875 -10.726562 43.171875 -8.320312 43.765625 -6.71875 C 44.367188 -5.125 45.550781 -4.046875 47.3125 -3.484375 C 49.070312 -2.921875 51.632812 -2.5625 55 -2.40625 L 55 0 C 52.914062 -0.15625 50.269531 -0.253906 47.0625 -0.296875 C 43.863281 -0.335938 40.625 -0.359375 37.34375 -0.359375 C 33.738281 -0.359375 30.351562 -0.335938 27.1875 -0.296875 C 24.03125 -0.253906 21.492188 -0.15625 19.578125 0 L 19.578125 -2.40625 C 22.941406 -2.5625 25.503906 -2.921875 27.265625 -3.484375 C 29.023438 -4.046875 30.203125 -5.125 30.796875 -6.71875 C 31.398438 -8.320312 31.703125 -10.726562 31.703125 -13.9375 L 31.703125 -82.265625 L 25.21875 -82.265625 C 20.257812 -82.265625 16.554688 -81.539062 14.109375 -80.09375 C 11.671875 -78.65625 9.96875 -76.316406 9 -73.078125 C 8.039062 -69.835938 7.28125 -65.414062 6.71875 -59.8125 L 3.96875 -59.8125 C 4.125 -61.09375 4.222656 -62.570312 4.265625 -64.25 C 4.304688 -65.925781 4.328125 -67.726562 4.328125 -69.65625 C 4.328125 -71.175781 4.265625 -73.359375 4.140625 -76.203125 C 4.023438 -79.046875 3.804688 -81.988281 3.484375 -85.03125 C 6.847656 -84.945312 10.507812 -84.863281 14.46875 -84.78125 C 18.4375 -84.707031 22.421875 -84.671875 26.421875 -84.671875 C 30.421875 -84.671875 34.0625 -84.671875 37.34375 -84.671875 C 40.625 -84.671875 44.242188 -84.671875 48.203125 -84.671875 C 52.171875 -84.671875 56.15625 -84.707031 60.15625 -84.78125 C 64.164062 -84.863281 67.8125 -84.945312 71.09375 -85.03125 Z M 71.09375 -85.03125 "/></g></g></g><g clip-path="url(#d5b27a7ed0)"><path fill="#27272b" d="M 78.652344 170.597656 L 298.59375 170.597656 L 298.59375 196.210938 L 78.652344 196.210938 Z M 78.652344 170.597656 " fill-opacity="1" fill-rule="nonzero"/></g><g fill="#f1be07" fill-opacity="1"><g transform="translate(94.230006, 188.657287)"><g><path d="M 7.734375 -1.265625 L 7.734375 0 L 1.421875 0 L 1.421875 -11.125 L 2.921875 -11.125 L 2.921875 -1.265625 Z M 7.734375 -1.265625 "/></g></g></g><g fill="#f1be07" fill-opacity="1"><g transform="translate(107.150985, 188.657287)"><g><path d="M 5.71875 -1.203125 C 6.175781 -1.203125 6.585938 -1.273438 6.953125 -1.421875 C 7.316406 -1.578125 7.625 -1.796875 7.875 -2.078125 C 8.125 -2.359375 8.3125 -2.691406 8.4375 -3.078125 C 8.570312 -3.472656 8.640625 -3.898438 8.640625 -4.359375 L 8.640625 -11.125 L 10.140625 -11.125 L 10.140625 -4.359375 C 10.140625 -3.722656 10.035156 -3.128906 9.828125 -2.578125 C 9.628906 -2.023438 9.335938 -1.546875 8.953125 -1.140625 C 8.578125 -0.742188 8.113281 -0.429688 7.5625 -0.203125 C 7.007812 0.015625 6.394531 0.125 5.71875 0.125 C 5.03125 0.125 4.410156 0.015625 3.859375 -0.203125 C 3.316406 -0.429688 2.851562 -0.742188 2.46875 -1.140625 C 2.082031 -1.546875 1.785156 -2.023438 1.578125 -2.578125 C 1.378906 -3.128906 1.28125 -3.722656 1.28125 -4.359375 L 1.28125 -11.125 L 2.78125 -11.125 L 2.78125 -4.375 C 2.78125 -3.90625 2.84375 -3.476562 2.96875 -3.09375 C 3.101562 -2.707031 3.296875 -2.375 3.546875 -2.09375 C 3.796875 -1.8125 4.101562 -1.59375 4.46875 -1.4375 C 4.84375 -1.28125 5.257812 -1.203125 5.71875 -1.203125 Z M 5.71875 -1.203125 "/></g></g></g><g fill="#f1be07" fill-opacity="1"><g transform="translate(123.516439, 188.657287)"><g><path d="M 9.90625 0 L 8.421875 0 C 8.304688 0 8.210938 -0.0234375 8.140625 -0.078125 C 8.078125 -0.140625 8.023438 -0.207031 7.984375 -0.28125 L 5.015625 -4.96875 C 4.972656 -4.84375 4.925781 -4.734375 4.875 -4.640625 L 1.96875 -0.28125 C 1.914062 -0.207031 1.859375 -0.140625 1.796875 -0.078125 C 1.734375 -0.0234375 1.648438 0 1.546875 0 L 0.15625 0 L 3.984375 -5.71875 L 0.3125 -11.125 L 1.8125 -11.125 C 1.914062 -11.125 1.992188 -11.101562 2.046875 -11.0625 C 2.097656 -11.03125 2.144531 -10.984375 2.1875 -10.921875 L 5.09375 -6.453125 C 5.132812 -6.566406 5.1875 -6.6875 5.25 -6.8125 L 8 -10.890625 C 8.039062 -10.960938 8.085938 -11.019531 8.140625 -11.0625 C 8.203125 -11.101562 8.269531 -11.125 8.34375 -11.125 L 9.78125 -11.125 L 6.09375 -5.78125 Z M 9.90625 0 "/></g></g></g><g fill="#f1be07" fill-opacity="1"><g transform="translate(138.539788, 188.657287)"><g><path d="M 8.28125 -1.234375 L 8.28125 0 L 1.421875 0 L 1.421875 -11.125 L 8.28125 -11.125 L 8.28125 -9.90625 L 2.921875 -9.90625 L 2.921875 -6.203125 L 7.265625 -6.203125 L 7.265625 -5.03125 L 2.921875 -5.03125 L 2.921875 -1.234375 Z M 8.28125 -1.234375 "/></g></g></g><g fill="#f1be07" fill-opacity="1"><g transform="translate(152.460471, 188.657287)"><g/></g></g><g fill="#f1be07" fill-opacity="1"><g transform="translate(161.386157, 188.657287)"><g/></g></g><g fill="#f1be07" fill-opacity="1"><g transform="translate(170.311843, 188.657287)"><g/></g></g><g fill="#f1be07" fill-opacity="1"><g transform="translate(179.237527, 188.657287)"><g/></g></g><g fill="#f1be07" fill-opacity="1"><g transform="translate(188.163214, 188.657287)"><g/></g></g><g fill="#f1be07" fill-opacity="1"><g transform="translate(197.088902, 188.657287)"><g/></g></g><g fill="#f1be07" fill-opacity="1"><g transform="translate(206.014589, 188.657287)"><g/></g></g><g fill="#f1be07" fill-opacity="1"><g transform="translate(214.944846, 188.657287)"><g><path d="M 8.953125 -9.859375 L 5.34375 -9.859375 L 5.34375 0 L 3.84375 0 L 3.84375 -9.859375 L 0.234375 -9.859375 L 0.234375 -11.125 L 8.953125 -11.125 Z M 8.953125 -9.859375 "/></g></g></g><g fill="#f1be07" fill-opacity="1"><g transform="translate(229.06053, 188.657287)"><g><path d="M 4.5 -5.734375 C 4.9375 -5.734375 5.320312 -5.785156 5.65625 -5.890625 C 5.988281 -6.003906 6.265625 -6.15625 6.484375 -6.34375 C 6.710938 -6.539062 6.882812 -6.773438 7 -7.046875 C 7.113281 -7.316406 7.171875 -7.613281 7.171875 -7.9375 C 7.171875 -8.601562 6.953125 -9.101562 6.515625 -9.4375 C 6.085938 -9.769531 5.4375 -9.9375 4.5625 -9.9375 L 2.921875 -9.9375 L 2.921875 -5.734375 Z M 9.640625 0 L 8.3125 0 C 8.03125 0 7.828125 -0.101562 7.703125 -0.3125 L 4.8125 -4.296875 C 4.726562 -4.421875 4.632812 -4.507812 4.53125 -4.5625 C 4.425781 -4.613281 4.269531 -4.640625 4.0625 -4.640625 L 2.921875 -4.640625 L 2.921875 0 L 1.421875 0 L 1.421875 -11.125 L 4.5625 -11.125 C 5.269531 -11.125 5.878906 -11.050781 6.390625 -10.90625 C 6.898438 -10.769531 7.320312 -10.566406 7.65625 -10.296875 C 7.988281 -10.023438 8.234375 -9.695312 8.390625 -9.3125 C 8.554688 -8.9375 8.640625 -8.515625 8.640625 -8.046875 C 8.640625 -7.648438 8.578125 -7.28125 8.453125 -6.9375 C 8.328125 -6.601562 8.144531 -6.296875 7.90625 -6.015625 C 7.675781 -5.742188 7.390625 -5.515625 7.046875 -5.328125 C 6.710938 -5.140625 6.332031 -4.992188 5.90625 -4.890625 C 6.09375 -4.785156 6.257812 -4.628906 6.40625 -4.421875 Z M 9.640625 0 "/></g></g></g><g fill="#f1be07" fill-opacity="1"><g transform="translate(243.734777, 188.657287)"><g><path d="M 11.703125 -5.5625 C 11.703125 -4.726562 11.566406 -3.960938 11.296875 -3.265625 C 11.035156 -2.566406 10.664062 -1.96875 10.1875 -1.46875 C 9.707031 -0.96875 9.128906 -0.578125 8.453125 -0.296875 C 7.773438 -0.0234375 7.03125 0.109375 6.21875 0.109375 C 5.394531 0.109375 4.644531 -0.0234375 3.96875 -0.296875 C 3.300781 -0.578125 2.722656 -0.96875 2.234375 -1.46875 C 1.753906 -1.96875 1.382812 -2.566406 1.125 -3.265625 C 0.863281 -3.960938 0.734375 -4.726562 0.734375 -5.5625 C 0.734375 -6.394531 0.863281 -7.160156 1.125 -7.859375 C 1.382812 -8.554688 1.753906 -9.15625 2.234375 -9.65625 C 2.722656 -10.15625 3.300781 -10.546875 3.96875 -10.828125 C 4.644531 -11.109375 5.394531 -11.25 6.21875 -11.25 C 7.03125 -11.25 7.773438 -11.109375 8.453125 -10.828125 C 9.128906 -10.546875 9.707031 -10.15625 10.1875 -9.65625 C 10.664062 -9.15625 11.035156 -8.554688 11.296875 -7.859375 C 11.566406 -7.160156 11.703125 -6.394531 11.703125 -5.5625 Z M 10.15625 -5.5625 C 10.15625 -6.238281 10.0625 -6.847656 9.875 -7.390625 C 9.6875 -7.941406 9.421875 -8.40625 9.078125 -8.78125 C 8.742188 -9.15625 8.332031 -9.441406 7.84375 -9.640625 C 7.351562 -9.847656 6.8125 -9.953125 6.21875 -9.953125 C 5.613281 -9.953125 5.066406 -9.847656 4.578125 -9.640625 C 4.097656 -9.441406 3.6875 -9.15625 3.34375 -8.78125 C 3 -8.40625 2.734375 -7.941406 2.546875 -7.390625 C 2.359375 -6.847656 2.265625 -6.238281 2.265625 -5.5625 C 2.265625 -4.875 2.359375 -4.257812 2.546875 -3.71875 C 2.734375 -3.175781 3 -2.71875 3.34375 -2.34375 C 3.6875 -1.96875 4.097656 -1.679688 4.578125 -1.484375 C 5.066406 -1.285156 5.613281 -1.1875 6.21875 -1.1875 C 6.8125 -1.1875 7.351562 -1.285156 7.84375 -1.484375 C 8.332031 -1.679688 8.742188 -1.96875 9.078125 -2.34375 C 9.421875 -2.71875 9.6875 -3.175781 9.875 -3.71875 C 10.0625 -4.257812 10.15625 -4.875 10.15625 -5.5625 Z M 10.15625 -5.5625 "/></g></g></g><g fill="#f1be07" fill-opacity="1"><g transform="translate(261.108752, 188.657287)"><g><path d="M 10.46875 -11.125 L 5.9375 0 L 4.578125 0 L 0.046875 -11.125 L 1.25 -11.125 C 1.382812 -11.125 1.492188 -11.085938 1.578125 -11.015625 C 1.660156 -10.953125 1.722656 -10.867188 1.765625 -10.765625 L 4.90625 -2.921875 C 4.96875 -2.742188 5.03125 -2.550781 5.09375 -2.34375 C 5.15625 -2.132812 5.210938 -1.914062 5.265625 -1.6875 C 5.316406 -1.914062 5.367188 -2.132812 5.421875 -2.34375 C 5.484375 -2.550781 5.550781 -2.742188 5.625 -2.921875 L 8.75 -10.765625 C 8.78125 -10.859375 8.835938 -10.941406 8.921875 -11.015625 C 9.015625 -11.085938 9.128906 -11.125 9.265625 -11.125 Z M 10.46875 -11.125 "/></g></g></g><g fill="#f1be07" fill-opacity="1"><g transform="translate(276.566544, 188.657287)"><g><path d="M 8.28125 -1.234375 L 8.28125 0 L 1.421875 0 L 1.421875 -11.125 L 8.28125 -11.125 L 8.28125 -9.90625 L 2.921875 -9.90625 L 2.921875 -6.203125 L 7.265625 -6.203125 L 7.265625 -5.03125 L 2.921875 -5.03125 L 2.921875 -1.234375 Z M 8.28125 -1.234375 "/></g></g></g><g fill="#ffffff" fill-opacity="1"><g transform="translate(94.464418, 278.664385)"><g><path d="M 5.96875 -0.984375 L 5.96875 0 L 1.09375 0 L 1.09375 -8.59375 L 2.25 -8.59375 L 2.25 -0.984375 Z M 5.96875 -0.984375 "/></g></g></g><g fill="#ffffff" fill-opacity="1"><g transform="translate(106.986339, 278.664385)"><g><path d="M 5.84375 -6.078125 L 5.84375 0 L 5.203125 0 C 5.054688 0 4.960938 -0.0703125 4.921875 -0.21875 L 4.84375 -0.875 C 4.570312 -0.582031 4.269531 -0.347656 3.9375 -0.171875 C 3.613281 0.00390625 3.238281 0.09375 2.8125 0.09375 C 2.488281 0.09375 2.195312 0.0390625 1.9375 -0.0625 C 1.6875 -0.175781 1.472656 -0.332031 1.296875 -0.53125 C 1.128906 -0.726562 1 -0.96875 0.90625 -1.25 C 0.820312 -1.539062 0.78125 -1.859375 0.78125 -2.203125 L 0.78125 -6.078125 L 1.859375 -6.078125 L 1.859375 -2.203125 C 1.859375 -1.742188 1.960938 -1.382812 2.171875 -1.125 C 2.378906 -0.875 2.695312 -0.75 3.125 -0.75 C 3.445312 -0.75 3.742188 -0.820312 4.015625 -0.96875 C 4.285156 -1.125 4.539062 -1.335938 4.78125 -1.609375 L 4.78125 -6.078125 Z M 5.84375 -6.078125 "/></g></g></g><g fill="#ffffff" fill-opacity="1"><g transform="translate(120.036257, 278.664385)"><g><path d="M 5.84375 0 L 4.8125 0 C 4.726562 0 4.660156 -0.0195312 4.609375 -0.0625 C 4.554688 -0.113281 4.515625 -0.164062 4.484375 -0.21875 L 2.953125 -2.609375 C 2.929688 -2.546875 2.910156 -2.488281 2.890625 -2.4375 C 2.878906 -2.382812 2.859375 -2.335938 2.828125 -2.296875 L 1.40625 -0.21875 C 1.363281 -0.164062 1.320312 -0.113281 1.28125 -0.0625 C 1.238281 -0.0195312 1.175781 0 1.09375 0 L 0.140625 0 L 2.265625 -3.125 L 0.21875 -6.078125 L 1.25 -6.078125 C 1.332031 -6.078125 1.394531 -6.0625 1.4375 -6.03125 C 1.476562 -6.007812 1.515625 -5.972656 1.546875 -5.921875 L 3.046875 -3.640625 C 3.078125 -3.753906 3.125 -3.863281 3.1875 -3.96875 L 4.5 -5.890625 C 4.53125 -5.941406 4.566406 -5.984375 4.609375 -6.015625 C 4.660156 -6.054688 4.710938 -6.078125 4.765625 -6.078125 L 5.75 -6.078125 L 3.703125 -3.171875 Z M 5.84375 0 "/></g></g></g><g fill="#ffffff" fill-opacity="1"><g transform="translate(132.372177, 278.664385)"><g><path d="M 5.84375 -6.078125 L 5.84375 0 L 5.203125 0 C 5.054688 0 4.960938 -0.0703125 4.921875 -0.21875 L 4.84375 -0.875 C 4.570312 -0.582031 4.269531 -0.347656 3.9375 -0.171875 C 3.613281 0.00390625 3.238281 0.09375 2.8125 0.09375 C 2.488281 0.09375 2.195312 0.0390625 1.9375 -0.0625 C 1.6875 -0.175781 1.472656 -0.332031 1.296875 -0.53125 C 1.128906 -0.726562 1 -0.96875 0.90625 -1.25 C 0.820312 -1.539062 0.78125 -1.859375 0.78125 -2.203125 L 0.78125 -6.078125 L 1.859375 -6.078125 L 1.859375 -2.203125 C 1.859375 -1.742188 1.960938 -1.382812 2.171875 -1.125 C 2.378906 -0.875 2.695312 -0.75 3.125 -0.75 C 3.445312 -0.75 3.742188 -0.820312 4.015625 -0.96875 C 4.285156 -1.125 4.539062 -1.335938 4.78125 -1.609375 L 4.78125 -6.078125 Z M 5.84375 -6.078125 "/></g></g></g><g fill="#ffffff" fill-opacity="1"><g transform="translate(145.422095, 278.664385)"><g><path d="M 1.859375 -4.859375 C 2.046875 -5.273438 2.28125 -5.597656 2.5625 -5.828125 C 2.84375 -6.066406 3.1875 -6.1875 3.59375 -6.1875 C 3.71875 -6.1875 3.835938 -6.171875 3.953125 -6.140625 C 4.078125 -6.117188 4.1875 -6.078125 4.28125 -6.015625 L 4.203125 -5.21875 C 4.171875 -5.113281 4.109375 -5.0625 4.015625 -5.0625 C 3.960938 -5.0625 3.878906 -5.070312 3.765625 -5.09375 C 3.660156 -5.125 3.539062 -5.140625 3.40625 -5.140625 C 3.21875 -5.140625 3.046875 -5.109375 2.890625 -5.046875 C 2.742188 -4.992188 2.609375 -4.910156 2.484375 -4.796875 C 2.367188 -4.691406 2.265625 -4.554688 2.171875 -4.390625 C 2.078125 -4.234375 1.992188 -4.050781 1.921875 -3.84375 L 1.921875 0 L 0.84375 0 L 0.84375 -6.078125 L 1.453125 -6.078125 C 1.566406 -6.078125 1.644531 -6.054688 1.6875 -6.015625 C 1.738281 -5.972656 1.769531 -5.894531 1.78125 -5.78125 Z M 1.859375 -4.859375 "/></g></g></g><g fill="#ffffff" fill-opacity="1"><g transform="translate(156.150037, 278.664385)"><g><path d="M 6.09375 -6.078125 L 2.703125 1.796875 C 2.660156 1.867188 2.613281 1.929688 2.5625 1.984375 C 2.507812 2.035156 2.425781 2.0625 2.3125 2.0625 L 1.53125 2.0625 L 2.640625 -0.359375 L 0.125 -6.078125 L 1.046875 -6.078125 C 1.140625 -6.078125 1.210938 -6.050781 1.265625 -6 C 1.316406 -5.957031 1.351562 -5.910156 1.375 -5.859375 L 3 -2.03125 C 3.070312 -1.863281 3.128906 -1.6875 3.171875 -1.5 C 3.222656 -1.6875 3.28125 -1.863281 3.34375 -2.03125 L 4.921875 -5.859375 C 4.953125 -5.921875 4.992188 -5.972656 5.046875 -6.015625 C 5.109375 -6.054688 5.175781 -6.078125 5.25 -6.078125 Z M 6.09375 -6.078125 "/></g></g></g><g fill="#ffffff" fill-opacity="1"><g transform="translate(168.695954, 278.664385)"><g/></g></g><g fill="#ffffff" fill-opacity="1"><g transform="translate(178.127911, 278.664385)"><g><path d="M 3.484375 -4.4375 C 3.816406 -4.4375 4.113281 -4.476562 4.375 -4.5625 C 4.632812 -4.644531 4.847656 -4.757812 5.015625 -4.90625 C 5.191406 -5.050781 5.320312 -5.226562 5.40625 -5.4375 C 5.5 -5.644531 5.546875 -5.875 5.546875 -6.125 C 5.546875 -6.644531 5.375 -7.035156 5.03125 -7.296875 C 4.695312 -7.554688 4.195312 -7.6875 3.53125 -7.6875 L 2.25 -7.6875 L 2.25 -4.4375 Z M 7.453125 0 L 6.421875 0 C 6.210938 0 6.054688 -0.0820312 5.953125 -0.25 L 3.71875 -3.3125 C 3.65625 -3.414062 3.582031 -3.488281 3.5 -3.53125 C 3.425781 -3.570312 3.304688 -3.59375 3.140625 -3.59375 L 2.25 -3.59375 L 2.25 0 L 1.09375 0 L 1.09375 -8.59375 L 3.53125 -8.59375 C 4.070312 -8.59375 4.539062 -8.535156 4.9375 -8.421875 C 5.332031 -8.316406 5.660156 -8.160156 5.921875 -7.953125 C 6.179688 -7.742188 6.367188 -7.492188 6.484375 -7.203125 C 6.609375 -6.910156 6.671875 -6.582031 6.671875 -6.21875 C 6.671875 -5.914062 6.625 -5.628906 6.53125 -5.359375 C 6.4375 -5.097656 6.296875 -4.863281 6.109375 -4.65625 C 5.929688 -4.445312 5.710938 -4.265625 5.453125 -4.109375 C 5.191406 -3.960938 4.894531 -3.851562 4.5625 -3.78125 C 4.707031 -3.695312 4.832031 -3.570312 4.9375 -3.40625 Z M 7.453125 0 "/></g></g></g><g fill="#ffffff" fill-opacity="1"><g transform="translate(192.005805, 278.664385)"><g><path d="M 4.90625 -3.703125 C 4.90625 -3.953125 4.867188 -4.175781 4.796875 -4.375 C 4.734375 -4.582031 4.632812 -4.757812 4.5 -4.90625 C 4.363281 -5.0625 4.195312 -5.179688 4 -5.265625 C 3.8125 -5.347656 3.597656 -5.390625 3.359375 -5.390625 C 2.847656 -5.390625 2.441406 -5.238281 2.140625 -4.9375 C 1.847656 -4.644531 1.664062 -4.234375 1.59375 -3.703125 Z M 5.78125 -0.859375 C 5.644531 -0.691406 5.484375 -0.550781 5.296875 -0.4375 C 5.117188 -0.320312 4.921875 -0.222656 4.703125 -0.140625 C 4.492188 -0.0664062 4.273438 -0.015625 4.046875 0.015625 C 3.828125 0.0546875 3.609375 0.078125 3.390625 0.078125 C 2.972656 0.078125 2.585938 0.0078125 2.234375 -0.125 C 1.878906 -0.269531 1.570312 -0.476562 1.3125 -0.75 C 1.0625 -1.019531 0.863281 -1.359375 0.71875 -1.765625 C 0.570312 -2.171875 0.5 -2.632812 0.5 -3.15625 C 0.5 -3.582031 0.5625 -3.976562 0.6875 -4.34375 C 0.820312 -4.71875 1.007812 -5.039062 1.25 -5.3125 C 1.5 -5.582031 1.796875 -5.789062 2.140625 -5.9375 C 2.492188 -6.09375 2.894531 -6.171875 3.34375 -6.171875 C 3.695312 -6.171875 4.03125 -6.109375 4.34375 -5.984375 C 4.65625 -5.867188 4.921875 -5.695312 5.140625 -5.46875 C 5.367188 -5.238281 5.546875 -4.953125 5.671875 -4.609375 C 5.804688 -4.273438 5.875 -3.890625 5.875 -3.453125 C 5.875 -3.285156 5.851562 -3.171875 5.8125 -3.109375 C 5.78125 -3.054688 5.710938 -3.03125 5.609375 -3.03125 L 1.546875 -3.03125 C 1.566406 -2.644531 1.625 -2.3125 1.71875 -2.03125 C 1.8125 -1.75 1.941406 -1.507812 2.109375 -1.3125 C 2.273438 -1.125 2.472656 -0.984375 2.703125 -0.890625 C 2.929688 -0.796875 3.191406 -0.75 3.484375 -0.75 C 3.753906 -0.75 3.984375 -0.78125 4.171875 -0.84375 C 4.367188 -0.90625 4.535156 -0.972656 4.671875 -1.046875 C 4.816406 -1.117188 4.9375 -1.1875 5.03125 -1.25 C 5.125 -1.3125 5.207031 -1.34375 5.28125 -1.34375 C 5.363281 -1.34375 5.429688 -1.304688 5.484375 -1.234375 Z M 5.78125 -0.859375 "/></g></g></g><g fill="#ffffff" fill-opacity="1"><g transform="translate(204.701719, 278.664385)"><g><path d="M 4.8125 -4.625 C 4.601562 -4.894531 4.382812 -5.082031 4.15625 -5.1875 C 3.925781 -5.300781 3.664062 -5.359375 3.375 -5.359375 C 2.8125 -5.359375 2.378906 -5.15625 2.078125 -4.75 C 1.773438 -4.34375 1.625 -3.765625 1.625 -3.015625 C 1.625 -2.617188 1.65625 -2.28125 1.71875 -2 C 1.789062 -1.71875 1.890625 -1.484375 2.015625 -1.296875 C 2.148438 -1.117188 2.3125 -0.988281 2.5 -0.90625 C 2.695312 -0.820312 2.914062 -0.78125 3.15625 -0.78125 C 3.507812 -0.78125 3.816406 -0.859375 4.078125 -1.015625 C 4.335938 -1.179688 4.582031 -1.410156 4.8125 -1.703125 Z M 5.875 -8.84375 L 5.875 0 L 5.234375 0 C 5.085938 0 4.992188 -0.0703125 4.953125 -0.21875 L 4.859375 -0.953125 C 4.597656 -0.640625 4.300781 -0.390625 3.96875 -0.203125 C 3.632812 -0.015625 3.25 0.078125 2.8125 0.078125 C 2.46875 0.078125 2.148438 0.015625 1.859375 -0.109375 C 1.578125 -0.242188 1.335938 -0.441406 1.140625 -0.703125 C 0.941406 -0.960938 0.785156 -1.285156 0.671875 -1.671875 C 0.566406 -2.066406 0.515625 -2.515625 0.515625 -3.015625 C 0.515625 -3.460938 0.570312 -3.878906 0.6875 -4.265625 C 0.8125 -4.648438 0.984375 -4.984375 1.203125 -5.265625 C 1.429688 -5.554688 1.707031 -5.78125 2.03125 -5.9375 C 2.363281 -6.101562 2.734375 -6.1875 3.140625 -6.1875 C 3.515625 -6.1875 3.832031 -6.125 4.09375 -6 C 4.363281 -5.875 4.601562 -5.695312 4.8125 -5.46875 L 4.8125 -8.84375 Z M 5.875 -8.84375 "/></g></g></g><g fill="#ffffff" fill-opacity="1"><g transform="translate(217.781628, 278.664385)"><g><path d="M 4.90625 -3.703125 C 4.90625 -3.953125 4.867188 -4.175781 4.796875 -4.375 C 4.734375 -4.582031 4.632812 -4.757812 4.5 -4.90625 C 4.363281 -5.0625 4.195312 -5.179688 4 -5.265625 C 3.8125 -5.347656 3.597656 -5.390625 3.359375 -5.390625 C 2.847656 -5.390625 2.441406 -5.238281 2.140625 -4.9375 C 1.847656 -4.644531 1.664062 -4.234375 1.59375 -3.703125 Z M 5.78125 -0.859375 C 5.644531 -0.691406 5.484375 -0.550781 5.296875 -0.4375 C 5.117188 -0.320312 4.921875 -0.222656 4.703125 -0.140625 C 4.492188 -0.0664062 4.273438 -0.015625 4.046875 0.015625 C 3.828125 0.0546875 3.609375 0.078125 3.390625 0.078125 C 2.972656 0.078125 2.585938 0.0078125 2.234375 -0.125 C 1.878906 -0.269531 1.570312 -0.476562 1.3125 -0.75 C 1.0625 -1.019531 0.863281 -1.359375 0.71875 -1.765625 C 0.570312 -2.171875 0.5 -2.632812 0.5 -3.15625 C 0.5 -3.582031 0.5625 -3.976562 0.6875 -4.34375 C 0.820312 -4.71875 1.007812 -5.039062 1.25 -5.3125 C 1.5 -5.582031 1.796875 -5.789062 2.140625 -5.9375 C 2.492188 -6.09375 2.894531 -6.171875 3.34375 -6.171875 C 3.695312 -6.171875 4.03125 -6.109375 4.34375 -5.984375 C 4.65625 -5.867188 4.921875 -5.695312 5.140625 -5.46875 C 5.367188 -5.238281 5.546875 -4.953125 5.671875 -4.609375 C 5.804688 -4.273438 5.875 -3.890625 5.875 -3.453125 C 5.875 -3.285156 5.851562 -3.171875 5.8125 -3.109375 C 5.78125 -3.054688 5.710938 -3.03125 5.609375 -3.03125 L 1.546875 -3.03125 C 1.566406 -2.644531 1.625 -2.3125 1.71875 -2.03125 C 1.8125 -1.75 1.941406 -1.507812 2.109375 -1.3125 C 2.273438 -1.125 2.472656 -0.984375 2.703125 -0.890625 C 2.929688 -0.796875 3.191406 -0.75 3.484375 -0.75 C 3.753906 -0.75 3.984375 -0.78125 4.171875 -0.84375 C 4.367188 -0.90625 4.535156 -0.972656 4.671875 -1.046875 C 4.816406 -1.117188 4.9375 -1.1875 5.03125 -1.25 C 5.125 -1.3125 5.207031 -1.34375 5.28125 -1.34375 C 5.363281 -1.34375 5.429688 -1.304688 5.484375 -1.234375 Z M 5.78125 -0.859375 "/></g></g></g><g fill="#ffffff" fill-opacity="1"><g transform="translate(230.477543, 278.664385)"><g><path d="M 1.234375 0 L 1.234375 -5.171875 L 0.5625 -5.25 C 0.476562 -5.269531 0.410156 -5.300781 0.359375 -5.34375 C 0.304688 -5.382812 0.28125 -5.441406 0.28125 -5.515625 L 0.28125 -5.953125 L 1.234375 -5.953125 L 1.234375 -6.546875 C 1.234375 -6.890625 1.28125 -7.195312 1.375 -7.46875 C 1.476562 -7.738281 1.617188 -7.96875 1.796875 -8.15625 C 1.984375 -8.34375 2.203125 -8.484375 2.453125 -8.578125 C 2.710938 -8.671875 3.003906 -8.71875 3.328125 -8.71875 C 3.597656 -8.71875 3.847656 -8.679688 4.078125 -8.609375 L 4.0625 -8.0625 C 4.050781 -7.96875 3.992188 -7.914062 3.890625 -7.90625 C 3.796875 -7.90625 3.664062 -7.90625 3.5 -7.90625 C 3.320312 -7.90625 3.15625 -7.878906 3 -7.828125 C 2.851562 -7.785156 2.722656 -7.707031 2.609375 -7.59375 C 2.503906 -7.488281 2.421875 -7.347656 2.359375 -7.171875 C 2.304688 -6.992188 2.28125 -6.773438 2.28125 -6.515625 L 2.28125 -5.953125 L 4.03125 -5.953125 L 4.03125 -5.1875 L 2.3125 -5.1875 L 2.3125 0 Z M 1.234375 0 "/></g></g></g><g fill="#ffffff" fill-opacity="1"><g transform="translate(241.043483, 278.664385)"><g><path d="M 1.96875 -6.078125 L 1.96875 0 L 0.90625 0 L 0.90625 -6.078125 Z M 2.203125 -7.984375 C 2.203125 -7.878906 2.179688 -7.78125 2.140625 -7.6875 C 2.097656 -7.601562 2.039062 -7.523438 1.96875 -7.453125 C 1.894531 -7.378906 1.8125 -7.320312 1.71875 -7.28125 C 1.625 -7.25 1.523438 -7.234375 1.421875 -7.234375 C 1.316406 -7.234375 1.21875 -7.25 1.125 -7.28125 C 1.039062 -7.320312 0.960938 -7.378906 0.890625 -7.453125 C 0.828125 -7.523438 0.773438 -7.601562 0.734375 -7.6875 C 0.691406 -7.78125 0.671875 -7.878906 0.671875 -7.984375 C 0.671875 -8.085938 0.691406 -8.1875 0.734375 -8.28125 C 0.773438 -8.375 0.828125 -8.457031 0.890625 -8.53125 C 0.960938 -8.601562 1.039062 -8.65625 1.125 -8.6875 C 1.21875 -8.726562 1.316406 -8.75 1.421875 -8.75 C 1.523438 -8.75 1.625 -8.726562 1.71875 -8.6875 C 1.8125 -8.65625 1.894531 -8.601562 1.96875 -8.53125 C 2.039062 -8.457031 2.097656 -8.375 2.140625 -8.28125 C 2.179688 -8.1875 2.203125 -8.085938 2.203125 -7.984375 Z M 2.203125 -7.984375 "/></g></g></g><g fill="#ffffff" fill-opacity="1"><g transform="translate(250.283442, 278.664385)"><g><path d="M 1.859375 -5.203125 C 1.984375 -5.347656 2.117188 -5.476562 2.265625 -5.59375 C 2.421875 -5.71875 2.582031 -5.820312 2.75 -5.90625 C 2.914062 -5.988281 3.085938 -6.050781 3.265625 -6.09375 C 3.453125 -6.144531 3.65625 -6.171875 3.875 -6.171875 C 4.207031 -6.171875 4.5 -6.113281 4.75 -6 C 5.007812 -5.894531 5.222656 -5.738281 5.390625 -5.53125 C 5.554688 -5.332031 5.679688 -5.09375 5.765625 -4.8125 C 5.859375 -4.53125 5.90625 -4.21875 5.90625 -3.875 L 5.90625 0 L 4.84375 0 L 4.84375 -3.875 C 4.84375 -4.332031 4.734375 -4.6875 4.515625 -4.9375 C 4.304688 -5.195312 3.988281 -5.328125 3.5625 -5.328125 C 3.25 -5.328125 2.953125 -5.25 2.671875 -5.09375 C 2.398438 -4.9375 2.148438 -4.726562 1.921875 -4.46875 L 1.921875 0 L 0.84375 0 L 0.84375 -6.078125 L 1.484375 -6.078125 C 1.640625 -6.078125 1.734375 -6.003906 1.765625 -5.859375 Z M 1.859375 -5.203125 "/></g></g></g><g fill="#ffffff" fill-opacity="1"><g transform="translate(263.339353, 278.664385)"><g><path d="M 4.90625 -3.703125 C 4.90625 -3.953125 4.867188 -4.175781 4.796875 -4.375 C 4.734375 -4.582031 4.632812 -4.757812 4.5 -4.90625 C 4.363281 -5.0625 4.195312 -5.179688 4 -5.265625 C 3.8125 -5.347656 3.597656 -5.390625 3.359375 -5.390625 C 2.847656 -5.390625 2.441406 -5.238281 2.140625 -4.9375 C 1.847656 -4.644531 1.664062 -4.234375 1.59375 -3.703125 Z M 5.78125 -0.859375 C 5.644531 -0.691406 5.484375 -0.550781 5.296875 -0.4375 C 5.117188 -0.320312 4.921875 -0.222656 4.703125 -0.140625 C 4.492188 -0.0664062 4.273438 -0.015625 4.046875 0.015625 C 3.828125 0.0546875 3.609375 0.078125 3.390625 0.078125 C 2.972656 0.078125 2.585938 0.0078125 2.234375 -0.125 C 1.878906 -0.269531 1.570312 -0.476562 1.3125 -0.75 C 1.0625 -1.019531 0.863281 -1.359375 0.71875 -1.765625 C 0.570312 -2.171875 0.5 -2.632812 0.5 -3.15625 C 0.5 -3.582031 0.5625 -3.976562 0.6875 -4.34375 C 0.820312 -4.71875 1.007812 -5.039062 1.25 -5.3125 C 1.5 -5.582031 1.796875 -5.789062 2.140625 -5.9375 C 2.492188 -6.09375 2.894531 -6.171875 3.34375 -6.171875 C 3.695312 -6.171875 4.03125 -6.109375 4.34375 -5.984375 C 4.65625 -5.867188 4.921875 -5.695312 5.140625 -5.46875 C 5.367188 -5.238281 5.546875 -4.953125 5.671875 -4.609375 C 5.804688 -4.273438 5.875 -3.890625 5.875 -3.453125 C 5.875 -3.285156 5.851562 -3.171875 5.8125 -3.109375 C 5.78125 -3.054688 5.710938 -3.03125 5.609375 -3.03125 L 1.546875 -3.03125 C 1.566406 -2.644531 1.625 -2.3125 1.71875 -2.03125 C 1.8125 -1.75 1.941406 -1.507812 2.109375 -1.3125 C 2.273438 -1.125 2.472656 -0.984375 2.703125 -0.890625 C 2.929688 -0.796875 3.191406 -0.75 3.484375 -0.75 C 3.753906 -0.75 3.984375 -0.78125 4.171875 -0.84375 C 4.367188 -0.90625 4.535156 -0.972656 4.671875 -1.046875 C 4.816406 -1.117188 4.9375 -1.1875 5.03125 -1.25 C 5.125 -1.3125 5.207031 -1.34375 5.28125 -1.34375 C 5.363281 -1.34375 5.429688 -1.304688 5.484375 -1.234375 Z M 5.78125 -0.859375 "/></g></g></g><g fill="#ffffff" fill-opacity="1"><g transform="translate(276.035268, 278.664385)"><g><path d="M 4.8125 -4.625 C 4.601562 -4.894531 4.382812 -5.082031 4.15625 -5.1875 C 3.925781 -5.300781 3.664062 -5.359375 3.375 -5.359375 C 2.8125 -5.359375 2.378906 -5.15625 2.078125 -4.75 C 1.773438 -4.34375 1.625 -3.765625 1.625 -3.015625 C 1.625 -2.617188 1.65625 -2.28125 1.71875 -2 C 1.789062 -1.71875 1.890625 -1.484375 2.015625 -1.296875 C 2.148438 -1.117188 2.3125 -0.988281 2.5 -0.90625 C 2.695312 -0.820312 2.914062 -0.78125 3.15625 -0.78125 C 3.507812 -0.78125 3.816406 -0.859375 4.078125 -1.015625 C 4.335938 -1.179688 4.582031 -1.410156 4.8125 -1.703125 Z M 5.875 -8.84375 L 5.875 0 L 5.234375 0 C 5.085938 0 4.992188 -0.0703125 4.953125 -0.21875 L 4.859375 -0.953125 C 4.597656 -0.640625 4.300781 -0.390625 3.96875 -0.203125 C 3.632812 -0.015625 3.25 0.078125 2.8125 0.078125 C 2.46875 0.078125 2.148438 0.015625 1.859375 -0.109375 C 1.578125 -0.242188 1.335938 -0.441406 1.140625 -0.703125 C 0.941406 -0.960938 0.785156 -1.285156 0.671875 -1.671875 C 0.566406 -2.066406 0.515625 -2.515625 0.515625 -3.015625 C 0.515625 -3.460938 0.570312 -3.878906 0.6875 -4.265625 C 0.8125 -4.648438 0.984375 -4.984375 1.203125 -5.265625 C 1.429688 -5.554688 1.707031 -5.78125 2.03125 -5.9375 C 2.363281 -6.101562 2.734375 -6.1875 3.140625 -6.1875 C 3.515625 -6.1875 3.832031 -6.125 4.09375 -6 C 4.363281 -5.875 4.601562 -5.695312 4.8125 -5.46875 L 4.8125 -8.84375 Z M 5.875 -8.84375 "/></g></g></g></svg>