<svg xmlns="http://www.w3.org/2000/svg" xmlns:xlink="http://www.w3.org/1999/xlink" width="500" zoomAndPan="magnify" viewBox="0 0 375 374.999991" height="500" preserveAspectRatio="xMidYMid meet" version="1.0"><defs><g/><clipPath id="b707d0a67f"><path d="M 37.5 176.882812 L 356.777344 176.882812 L 356.777344 212.863281 L 37.5 212.863281 Z M 37.5 176.882812 " clip-rule="nonzero"/></clipPath></defs><path stroke-linecap="butt" transform="matrix(0, -0.75, 0.75, 0, 191.087644, 283.161925)" fill="none" stroke-linejoin="miter" d="M 0.00235781 3.997725 L 252.799249 3.997725 " stroke="#f1be07" stroke-width="8" stroke-opacity="1" stroke-miterlimit="4"/><g fill="#000000" fill-opacity="1"><g transform="translate(60.796756, 255.974792)"><g><path d="M 50.09375 -119.4375 L 50.09375 -116.0625 C 46.269531 -115.945312 43.375 -115.523438 41.40625 -114.796875 C 39.4375 -114.066406 38.113281 -112.71875 37.4375 -110.75 C 36.769531 -108.78125 36.4375 -105.710938 36.4375 -101.546875 L 36.4375 -17.875 C 36.4375 -13.832031 36.769531 -10.796875 37.4375 -8.765625 C 38.113281 -6.742188 39.4375 -5.421875 41.40625 -4.796875 C 43.375 -4.179688 46.269531 -3.875 50.09375 -3.875 L 62.421875 -3.875 C 67.703125 -3.875 72 -4.4375 75.3125 -5.5625 C 78.632812 -6.6875 81.28125 -8.457031 83.25 -10.875 C 85.21875 -13.289062 86.707031 -16.523438 87.71875 -20.578125 C 88.726562 -24.628906 89.515625 -29.578125 90.078125 -35.421875 L 93.953125 -35.421875 C 93.617188 -31.929688 93.453125 -27.320312 93.453125 -21.59375 C 93.453125 -19.457031 93.535156 -16.390625 93.703125 -12.390625 C 93.867188 -8.398438 94.179688 -4.269531 94.640625 0 C 88.898438 -0.226562 82.429688 -0.367188 75.234375 -0.421875 C 68.035156 -0.472656 61.625 -0.5 56 -0.5 C 53.53125 -0.5 50.351562 -0.5 46.46875 -0.5 C 42.59375 -0.5 38.40625 -0.472656 33.90625 -0.421875 C 29.40625 -0.367188 24.847656 -0.3125 20.234375 -0.25 C 15.628906 -0.195312 11.242188 -0.113281 7.078125 0 L 7.078125 -3.375 C 10.898438 -3.601562 13.796875 -4.050781 15.765625 -4.71875 C 17.734375 -5.394531 19.054688 -6.742188 19.734375 -8.765625 C 20.410156 -10.796875 20.75 -13.832031 20.75 -17.875 L 20.75 -101.546875 C 20.75 -105.710938 20.410156 -108.78125 19.734375 -110.75 C 19.054688 -112.71875 17.734375 -114.066406 15.765625 -114.796875 C 13.796875 -115.523438 10.898438 -115.945312 7.078125 -116.0625 L 7.078125 -119.4375 C 9.441406 -119.320312 12.535156 -119.207031 16.359375 -119.09375 C 20.179688 -118.976562 24.285156 -118.921875 28.671875 -118.921875 C 32.609375 -118.921875 36.515625 -118.976562 40.390625 -119.09375 C 44.273438 -119.207031 47.507812 -119.320312 50.09375 -119.4375 Z M 50.09375 -119.4375 "/></g></g></g><g fill="#000000" fill-opacity="1"><g transform="translate(209.41199, 255.974792)"><g><path d="M 99.859375 -119.4375 C 99.410156 -115.15625 99.101562 -111.019531 98.9375 -107.03125 C 98.769531 -103.039062 98.6875 -99.976562 98.6875 -97.84375 C 98.6875 -95.144531 98.738281 -92.613281 98.84375 -90.25 C 98.957031 -87.882812 99.070312 -85.800781 99.1875 -84 L 95.3125 -84 C 94.519531 -91.875 93.445312 -98.085938 92.09375 -102.640625 C 90.75 -107.203125 88.390625 -110.492188 85.015625 -112.515625 C 81.640625 -114.535156 76.410156 -115.546875 69.328125 -115.546875 L 60.21875 -115.546875 L 60.21875 -19.5625 C 60.21875 -15.0625 60.640625 -11.6875 61.484375 -9.4375 C 62.328125 -7.195312 63.984375 -5.679688 66.453125 -4.890625 C 68.929688 -4.109375 72.535156 -3.601562 77.265625 -3.375 L 77.265625 0 C 74.335938 -0.226562 70.625 -0.367188 66.125 -0.421875 C 61.625 -0.472656 57.070312 -0.5 52.46875 -0.5 C 47.40625 -0.5 42.648438 -0.472656 38.203125 -0.421875 C 33.765625 -0.367188 30.195312 -0.226562 27.5 0 L 27.5 -3.375 C 32.21875 -3.601562 35.8125 -4.109375 38.28125 -4.890625 C 40.757812 -5.679688 42.421875 -7.195312 43.265625 -9.4375 C 44.109375 -11.6875 44.53125 -15.0625 44.53125 -19.5625 L 44.53125 -115.546875 L 35.421875 -115.546875 C 28.453125 -115.546875 23.25 -114.535156 19.8125 -112.515625 C 16.382812 -110.492188 13.992188 -107.203125 12.640625 -102.640625 C 11.296875 -98.085938 10.234375 -91.875 9.453125 -84 L 5.5625 -84 C 5.789062 -85.800781 5.929688 -87.882812 5.984375 -90.25 C 6.046875 -92.613281 6.078125 -95.144531 6.078125 -97.84375 C 6.078125 -99.976562 5.988281 -103.039062 5.8125 -107.03125 C 5.644531 -111.019531 5.335938 -115.15625 4.890625 -119.4375 C 9.617188 -119.320312 14.765625 -119.207031 20.328125 -119.09375 C 25.890625 -118.976562 31.484375 -118.921875 37.109375 -118.921875 C 42.734375 -118.921875 47.851562 -118.921875 52.46875 -118.921875 C 57.070312 -118.921875 62.15625 -118.921875 67.71875 -118.921875 C 73.289062 -118.921875 78.890625 -118.976562 84.515625 -119.09375 C 90.140625 -119.207031 95.253906 -119.320312 99.859375 -119.4375 Z M 99.859375 -119.4375 "/></g></g></g><g clip-path="url(#b707d0a67f)"><path fill="#ffffff" d="M 37.5 176.882812 L 356.832031 176.882812 L 356.832031 212.863281 L 37.5 212.863281 Z M 37.5 176.882812 " fill-opacity="1" fill-rule="nonzero"/></g><g fill="#f1be07" fill-opacity="0.4"><g transform="translate(41.351014, 206.994536)"><g><path d="M 12.703125 -2.796875 L 12.703125 0 L 2.03125 0 L 2.03125 -18.234375 L 5.421875 -18.234375 L 5.421875 -2.796875 Z M 12.703125 -2.796875 "/></g></g></g><g fill="#f1be07" fill-opacity="0.4"><g transform="translate(62.490114, 206.994536)"><g><path d="M 9.375 -2.734375 C 10.03125 -2.734375 10.613281 -2.84375 11.125 -3.0625 C 11.644531 -3.28125 12.082031 -3.585938 12.4375 -3.984375 C 12.789062 -4.378906 13.0625 -4.859375 13.25 -5.421875 C 13.4375 -5.984375 13.53125 -6.613281 13.53125 -7.3125 L 13.53125 -18.234375 L 16.921875 -18.234375 L 16.921875 -7.3125 C 16.921875 -6.226562 16.742188 -5.222656 16.390625 -4.296875 C 16.046875 -3.378906 15.546875 -2.585938 14.890625 -1.921875 C 14.242188 -1.253906 13.453125 -0.734375 12.515625 -0.359375 C 11.585938 0.015625 10.539062 0.203125 9.375 0.203125 C 8.195312 0.203125 7.140625 0.015625 6.203125 -0.359375 C 5.265625 -0.734375 4.46875 -1.253906 3.8125 -1.921875 C 3.164062 -2.585938 2.664062 -3.378906 2.3125 -4.296875 C 1.96875 -5.222656 1.796875 -6.226562 1.796875 -7.3125 L 1.796875 -18.234375 L 5.1875 -18.234375 L 5.1875 -7.328125 C 5.1875 -6.628906 5.28125 -6 5.46875 -5.4375 C 5.664062 -4.875 5.941406 -4.390625 6.296875 -3.984375 C 6.648438 -3.585938 7.085938 -3.28125 7.609375 -3.0625 C 8.128906 -2.84375 8.71875 -2.734375 9.375 -2.734375 Z M 9.375 -2.734375 "/></g></g></g><g fill="#f1be07" fill-opacity="0.4"><g transform="translate(89.250382, 206.994536)"><g><path d="M 16.84375 0 L 13.46875 0 C 13.226562 0 13.039062 -0.0546875 12.90625 -0.171875 C 12.769531 -0.296875 12.660156 -0.429688 12.578125 -0.578125 L 8.34375 -7.578125 C 8.28125 -7.367188 8.203125 -7.1875 8.109375 -7.03125 L 4.0625 -0.578125 C 3.957031 -0.429688 3.835938 -0.296875 3.703125 -0.171875 C 3.578125 -0.0546875 3.410156 0 3.203125 0 L 0.03125 0 L 6.09375 -9.375 L 0.28125 -18.234375 L 3.65625 -18.234375 C 3.894531 -18.234375 4.066406 -18.203125 4.171875 -18.140625 C 4.273438 -18.078125 4.375 -17.972656 4.46875 -17.828125 L 8.609375 -11.140625 C 8.691406 -11.359375 8.796875 -11.570312 8.921875 -11.78125 L 12.71875 -17.765625 C 12.8125 -17.921875 12.910156 -18.035156 13.015625 -18.109375 C 13.128906 -18.191406 13.269531 -18.234375 13.4375 -18.234375 L 16.6875 -18.234375 L 10.8125 -9.515625 Z M 16.84375 0 "/></g></g></g><g fill="#f1be07" fill-opacity="0.4"><g transform="translate(114.195742, 206.994536)"><g><path d="M 5.4375 -15.53125 L 5.4375 -10.484375 L 11.8125 -10.484375 L 11.8125 -7.875 L 5.4375 -7.875 L 5.4375 -2.71875 L 13.53125 -2.71875 L 13.53125 0 L 2.03125 0 L 2.03125 -18.234375 L 13.53125 -18.234375 L 13.53125 -15.53125 Z M 5.4375 -15.53125 "/></g></g></g><g fill="#f1be07" fill-opacity="1"><g transform="translate(39.47879, 205.12232)"><g><path d="M 12.703125 -2.796875 L 12.703125 0 L 2.03125 0 L 2.03125 -18.234375 L 5.421875 -18.234375 L 5.421875 -2.796875 Z M 12.703125 -2.796875 "/></g></g></g><g fill="#f1be07" fill-opacity="1"><g transform="translate(60.61789, 205.12232)"><g><path d="M 9.375 -2.734375 C 10.03125 -2.734375 10.613281 -2.84375 11.125 -3.0625 C 11.644531 -3.28125 12.082031 -3.585938 12.4375 -3.984375 C 12.789062 -4.378906 13.0625 -4.859375 13.25 -5.421875 C 13.4375 -5.984375 13.53125 -6.613281 13.53125 -7.3125 L 13.53125 -18.234375 L 16.921875 -18.234375 L 16.921875 -7.3125 C 16.921875 -6.226562 16.742188 -5.222656 16.390625 -4.296875 C 16.046875 -3.378906 15.546875 -2.585938 14.890625 -1.921875 C 14.242188 -1.253906 13.453125 -0.734375 12.515625 -0.359375 C 11.585938 0.015625 10.539062 0.203125 9.375 0.203125 C 8.195312 0.203125 7.140625 0.015625 6.203125 -0.359375 C 5.265625 -0.734375 4.46875 -1.253906 3.8125 -1.921875 C 3.164062 -2.585938 2.664062 -3.378906 2.3125 -4.296875 C 1.96875 -5.222656 1.796875 -6.226562 1.796875 -7.3125 L 1.796875 -18.234375 L 5.1875 -18.234375 L 5.1875 -7.328125 C 5.1875 -6.628906 5.28125 -6 5.46875 -5.4375 C 5.664062 -4.875 5.941406 -4.390625 6.296875 -3.984375 C 6.648438 -3.585938 7.085938 -3.28125 7.609375 -3.0625 C 8.128906 -2.84375 8.71875 -2.734375 9.375 -2.734375 Z M 9.375 -2.734375 "/></g></g></g><g fill="#f1be07" fill-opacity="1"><g transform="translate(87.378158, 205.12232)"><g><path d="M 16.84375 0 L 13.46875 0 C 13.226562 0 13.039062 -0.0546875 12.90625 -0.171875 C 12.769531 -0.296875 12.660156 -0.429688 12.578125 -0.578125 L 8.34375 -7.578125 C 8.28125 -7.367188 8.203125 -7.1875 8.109375 -7.03125 L 4.0625 -0.578125 C 3.957031 -0.429688 3.835938 -0.296875 3.703125 -0.171875 C 3.578125 -0.0546875 3.410156 0 3.203125 0 L 0.03125 0 L 6.09375 -9.375 L 0.28125 -18.234375 L 3.65625 -18.234375 C 3.894531 -18.234375 4.066406 -18.203125 4.171875 -18.140625 C 4.273438 -18.078125 4.375 -17.972656 4.46875 -17.828125 L 8.609375 -11.140625 C 8.691406 -11.359375 8.796875 -11.570312 8.921875 -11.78125 L 12.71875 -17.765625 C 12.8125 -17.921875 12.910156 -18.035156 13.015625 -18.109375 C 13.128906 -18.191406 13.269531 -18.234375 13.4375 -18.234375 L 16.6875 -18.234375 L 10.8125 -9.515625 Z M 16.84375 0 "/></g></g></g><g fill="#f1be07" fill-opacity="1"><g transform="translate(112.323518, 205.12232)"><g><path d="M 5.4375 -15.53125 L 5.4375 -10.484375 L 11.8125 -10.484375 L 11.8125 -7.875 L 5.4375 -7.875 L 5.4375 -2.71875 L 13.53125 -2.71875 L 13.53125 0 L 2.03125 0 L 2.03125 -18.234375 L 13.53125 -18.234375 L 13.53125 -15.53125 Z M 5.4375 -15.53125 "/></g></g></g><g fill="#f1be07" fill-opacity="0.4"><g transform="translate(136.741632, 206.994536)"><g/></g></g><g fill="#f1be07" fill-opacity="0.4"><g transform="translate(150.910983, 206.994536)"><g/></g></g><g fill="#f1be07" fill-opacity="0.4"><g transform="translate(165.080334, 206.994536)"><g/></g></g><g fill="#f1be07" fill-opacity="0.4"><g transform="translate(179.249683, 206.994536)"><g/></g></g><g fill="#f1be07" fill-opacity="0.4"><g transform="translate(193.419036, 206.994536)"><g/></g></g><g fill="#f1be07" fill-opacity="0.4"><g transform="translate(207.588388, 206.994536)"><g/></g></g><g fill="#f1be07" fill-opacity="0.4"><g transform="translate(221.75774, 206.994536)"><g/></g></g><g fill="#f1be07" fill-opacity="1"><g transform="translate(134.869408, 205.12232)"><g/></g></g><g fill="#f1be07" fill-opacity="1"><g transform="translate(149.038759, 205.12232)"><g/></g></g><g fill="#f1be07" fill-opacity="1"><g transform="translate(163.20811, 205.12232)"><g/></g></g><g fill="#f1be07" fill-opacity="1"><g transform="translate(177.377459, 205.12232)"><g/></g></g><g fill="#f1be07" fill-opacity="1"><g transform="translate(191.546812, 205.12232)"><g/></g></g><g fill="#f1be07" fill-opacity="1"><g transform="translate(205.716164, 205.12232)"><g/></g></g><g fill="#f1be07" fill-opacity="1"><g transform="translate(219.885516, 205.12232)"><g/></g></g><g fill="#f1be07" fill-opacity="0.4"><g transform="translate(235.929126, 206.994536)"><g><path d="M 14.765625 -15.453125 L 9.265625 -15.453125 L 9.265625 0 L 5.875 0 L 5.875 -15.453125 L 0.375 -15.453125 L 0.375 -18.234375 L 14.765625 -18.234375 Z M 14.765625 -15.453125 "/></g></g></g><g fill="#f1be07" fill-opacity="0.4"><g transform="translate(259.097389, 206.994536)"><g><path d="M 7.546875 -9.5625 C 8.179688 -9.5625 8.734375 -9.640625 9.203125 -9.796875 C 9.679688 -9.953125 10.070312 -10.171875 10.375 -10.453125 C 10.6875 -10.734375 10.914062 -11.066406 11.0625 -11.453125 C 11.21875 -11.847656 11.296875 -12.273438 11.296875 -12.734375 C 11.296875 -13.660156 10.988281 -14.367188 10.375 -14.859375 C 9.769531 -15.359375 8.84375 -15.609375 7.59375 -15.609375 L 5.421875 -15.609375 L 5.421875 -9.5625 Z M 16.265625 0 L 13.203125 0 C 12.617188 0 12.195312 -0.226562 11.9375 -0.6875 L 8.109375 -6.515625 C 7.960938 -6.734375 7.800781 -6.890625 7.625 -6.984375 C 7.457031 -7.078125 7.207031 -7.125 6.875 -7.125 L 5.421875 -7.125 L 5.421875 0 L 2.03125 0 L 2.03125 -18.234375 L 7.59375 -18.234375 C 8.820312 -18.234375 9.878906 -18.101562 10.765625 -17.84375 C 11.660156 -17.59375 12.390625 -17.234375 12.953125 -16.765625 C 13.523438 -16.304688 13.941406 -15.753906 14.203125 -15.109375 C 14.472656 -14.460938 14.609375 -13.753906 14.609375 -12.984375 C 14.609375 -12.367188 14.519531 -11.785156 14.34375 -11.234375 C 14.164062 -10.691406 13.90625 -10.195312 13.5625 -9.75 C 13.21875 -9.3125 12.796875 -8.921875 12.296875 -8.578125 C 11.796875 -8.242188 11.226562 -7.984375 10.59375 -7.796875 C 10.8125 -7.671875 11.007812 -7.519531 11.1875 -7.34375 C 11.375 -7.175781 11.546875 -6.972656 11.703125 -6.734375 Z M 16.265625 0 "/></g></g></g><g fill="#f1be07" fill-opacity="0.4"><g transform="translate(283.349558, 206.994536)"><g><path d="M 19.421875 -9.109375 C 19.421875 -7.773438 19.195312 -6.535156 18.75 -5.390625 C 18.3125 -4.253906 17.6875 -3.269531 16.875 -2.4375 C 16.070312 -1.613281 15.101562 -0.96875 13.96875 -0.5 C 12.832031 -0.03125 11.570312 0.203125 10.1875 0.203125 C 8.8125 0.203125 7.554688 -0.03125 6.421875 -0.5 C 5.285156 -0.96875 4.3125 -1.613281 3.5 -2.4375 C 2.6875 -3.269531 2.054688 -4.253906 1.609375 -5.390625 C 1.171875 -6.535156 0.953125 -7.773438 0.953125 -9.109375 C 0.953125 -10.453125 1.171875 -11.691406 1.609375 -12.828125 C 2.054688 -13.960938 2.6875 -14.945312 3.5 -15.78125 C 4.3125 -16.613281 5.285156 -17.265625 6.421875 -17.734375 C 7.554688 -18.203125 8.8125 -18.4375 10.1875 -18.4375 C 11.113281 -18.4375 11.984375 -18.328125 12.796875 -18.109375 C 13.609375 -17.898438 14.351562 -17.597656 15.03125 -17.203125 C 15.71875 -16.816406 16.332031 -16.34375 16.875 -15.78125 C 17.414062 -15.21875 17.875 -14.59375 18.25 -13.90625 C 18.632812 -13.21875 18.925781 -12.46875 19.125 -11.65625 C 19.320312 -10.851562 19.421875 -10.003906 19.421875 -9.109375 Z M 15.953125 -9.109375 C 15.953125 -10.109375 15.816406 -11.003906 15.546875 -11.796875 C 15.273438 -12.597656 14.890625 -13.273438 14.390625 -13.828125 C 13.898438 -14.390625 13.300781 -14.816406 12.59375 -15.109375 C 11.882812 -15.398438 11.082031 -15.546875 10.1875 -15.546875 C 9.300781 -15.546875 8.5 -15.398438 7.78125 -15.109375 C 7.070312 -14.816406 6.46875 -14.390625 5.96875 -13.828125 C 5.46875 -13.273438 5.082031 -12.597656 4.8125 -11.796875 C 4.539062 -11.003906 4.40625 -10.109375 4.40625 -9.109375 C 4.40625 -8.109375 4.539062 -7.210938 4.8125 -6.421875 C 5.082031 -5.628906 5.46875 -4.957031 5.96875 -4.40625 C 6.46875 -3.851562 7.070312 -3.429688 7.78125 -3.140625 C 8.5 -2.847656 9.300781 -2.703125 10.1875 -2.703125 C 11.082031 -2.703125 11.882812 -2.847656 12.59375 -3.140625 C 13.300781 -3.429688 13.898438 -3.851562 14.390625 -4.40625 C 14.890625 -4.957031 15.273438 -5.628906 15.546875 -6.421875 C 15.816406 -7.210938 15.953125 -8.109375 15.953125 -9.109375 Z M 15.953125 -9.109375 "/></g></g></g><g fill="#f1be07" fill-opacity="0.4"><g transform="translate(311.760887, 206.994536)"><g><path d="M 17.65625 -18.234375 L 10.296875 0 L 7.21875 0 L -0.140625 -18.234375 L 2.578125 -18.234375 C 2.878906 -18.234375 3.117188 -18.160156 3.296875 -18.015625 C 3.484375 -17.867188 3.625 -17.6875 3.71875 -17.46875 L 8.015625 -6.34375 C 8.160156 -5.976562 8.296875 -5.578125 8.421875 -5.140625 C 8.554688 -4.710938 8.679688 -4.265625 8.796875 -3.796875 C 8.898438 -4.265625 9.007812 -4.710938 9.125 -5.140625 C 9.25 -5.578125 9.378906 -5.976562 9.515625 -6.34375 L 13.796875 -17.46875 C 13.859375 -17.65625 13.988281 -17.828125 14.1875 -17.984375 C 14.382812 -18.148438 14.628906 -18.234375 14.921875 -18.234375 Z M 17.65625 -18.234375 "/></g></g></g><g fill="#f1be07" fill-opacity="0.4"><g transform="translate(337.311217, 206.994536)"><g><path d="M 5.4375 -15.53125 L 5.4375 -10.484375 L 11.8125 -10.484375 L 11.8125 -7.875 L 5.4375 -7.875 L 5.4375 -2.71875 L 13.53125 -2.71875 L 13.53125 0 L 2.03125 0 L 2.03125 -18.234375 L 13.53125 -18.234375 L 13.53125 -15.53125 Z M 5.4375 -15.53125 "/></g></g></g><g fill="#f1be07" fill-opacity="1"><g transform="translate(234.056902, 205.12232)"><g><path d="M 14.765625 -15.453125 L 9.265625 -15.453125 L 9.265625 0 L 5.875 0 L 5.875 -15.453125 L 0.375 -15.453125 L 0.375 -18.234375 L 14.765625 -18.234375 Z M 14.765625 -15.453125 "/></g></g></g><g fill="#f1be07" fill-opacity="1"><g transform="translate(257.225165, 205.12232)"><g><path d="M 7.546875 -9.5625 C 8.179688 -9.5625 8.734375 -9.640625 9.203125 -9.796875 C 9.679688 -9.953125 10.070312 -10.171875 10.375 -10.453125 C 10.6875 -10.734375 10.914062 -11.066406 11.0625 -11.453125 C 11.21875 -11.847656 11.296875 -12.273438 11.296875 -12.734375 C 11.296875 -13.660156 10.988281 -14.367188 10.375 -14.859375 C 9.769531 -15.359375 8.84375 -15.609375 7.59375 -15.609375 L 5.421875 -15.609375 L 5.421875 -9.5625 Z M 16.265625 0 L 13.203125 0 C 12.617188 0 12.195312 -0.226562 11.9375 -0.6875 L 8.109375 -6.515625 C 7.960938 -6.734375 7.800781 -6.890625 7.625 -6.984375 C 7.457031 -7.078125 7.207031 -7.125 6.875 -7.125 L 5.421875 -7.125 L 5.421875 0 L 2.03125 0 L 2.03125 -18.234375 L 7.59375 -18.234375 C 8.820312 -18.234375 9.878906 -18.101562 10.765625 -17.84375 C 11.660156 -17.59375 12.390625 -17.234375 12.953125 -16.765625 C 13.523438 -16.304688 13.941406 -15.753906 14.203125 -15.109375 C 14.472656 -14.460938 14.609375 -13.753906 14.609375 -12.984375 C 14.609375 -12.367188 14.519531 -11.785156 14.34375 -11.234375 C 14.164062 -10.691406 13.90625 -10.195312 13.5625 -9.75 C 13.21875 -9.3125 12.796875 -8.921875 12.296875 -8.578125 C 11.796875 -8.242188 11.226562 -7.984375 10.59375 -7.796875 C 10.8125 -7.671875 11.007812 -7.519531 11.1875 -7.34375 C 11.375 -7.175781 11.546875 -6.972656 11.703125 -6.734375 Z M 16.265625 0 "/></g></g></g><g fill="#f1be07" fill-opacity="1"><g transform="translate(281.477334, 205.12232)"><g><path d="M 19.421875 -9.109375 C 19.421875 -7.773438 19.195312 -6.535156 18.75 -5.390625 C 18.3125 -4.253906 17.6875 -3.269531 16.875 -2.4375 C 16.070312 -1.613281 15.101562 -0.96875 13.96875 -0.5 C 12.832031 -0.03125 11.570312 0.203125 10.1875 0.203125 C 8.8125 0.203125 7.554688 -0.03125 6.421875 -0.5 C 5.285156 -0.96875 4.3125 -1.613281 3.5 -2.4375 C 2.6875 -3.269531 2.054688 -4.253906 1.609375 -5.390625 C 1.171875 -6.535156 0.953125 -7.773438 0.953125 -9.109375 C 0.953125 -10.453125 1.171875 -11.691406 1.609375 -12.828125 C 2.054688 -13.960938 2.6875 -14.945312 3.5 -15.78125 C 4.3125 -16.613281 5.285156 -17.265625 6.421875 -17.734375 C 7.554688 -18.203125 8.8125 -18.4375 10.1875 -18.4375 C 11.113281 -18.4375 11.984375 -18.328125 12.796875 -18.109375 C 13.609375 -17.898438 14.351562 -17.597656 15.03125 -17.203125 C 15.71875 -16.816406 16.332031 -16.34375 16.875 -15.78125 C 17.414062 -15.21875 17.875 -14.59375 18.25 -13.90625 C 18.632812 -13.21875 18.925781 -12.46875 19.125 -11.65625 C 19.320312 -10.851562 19.421875 -10.003906 19.421875 -9.109375 Z M 15.953125 -9.109375 C 15.953125 -10.109375 15.816406 -11.003906 15.546875 -11.796875 C 15.273438 -12.597656 14.890625 -13.273438 14.390625 -13.828125 C 13.898438 -14.390625 13.300781 -14.816406 12.59375 -15.109375 C 11.882812 -15.398438 11.082031 -15.546875 10.1875 -15.546875 C 9.300781 -15.546875 8.5 -15.398438 7.78125 -15.109375 C 7.070312 -14.816406 6.46875 -14.390625 5.96875 -13.828125 C 5.46875 -13.273438 5.082031 -12.597656 4.8125 -11.796875 C 4.539062 -11.003906 4.40625 -10.109375 4.40625 -9.109375 C 4.40625 -8.109375 4.539062 -7.210938 4.8125 -6.421875 C 5.082031 -5.628906 5.46875 -4.957031 5.96875 -4.40625 C 6.46875 -3.851562 7.070312 -3.429688 7.78125 -3.140625 C 8.5 -2.847656 9.300781 -2.703125 10.1875 -2.703125 C 11.082031 -2.703125 11.882812 -2.847656 12.59375 -3.140625 C 13.300781 -3.429688 13.898438 -3.851562 14.390625 -4.40625 C 14.890625 -4.957031 15.273438 -5.628906 15.546875 -6.421875 C 15.816406 -7.210938 15.953125 -8.109375 15.953125 -9.109375 Z M 15.953125 -9.109375 "/></g></g></g><g fill="#f1be07" fill-opacity="1"><g transform="translate(309.888663, 205.12232)"><g><path d="M 17.65625 -18.234375 L 10.296875 0 L 7.21875 0 L -0.140625 -18.234375 L 2.578125 -18.234375 C 2.878906 -18.234375 3.117188 -18.160156 3.296875 -18.015625 C 3.484375 -17.867188 3.625 -17.6875 3.71875 -17.46875 L 8.015625 -6.34375 C 8.160156 -5.976562 8.296875 -5.578125 8.421875 -5.140625 C 8.554688 -4.710938 8.679688 -4.265625 8.796875 -3.796875 C 8.898438 -4.265625 9.007812 -4.710938 9.125 -5.140625 C 9.25 -5.578125 9.378906 -5.976562 9.515625 -6.34375 L 13.796875 -17.46875 C 13.859375 -17.65625 13.988281 -17.828125 14.1875 -17.984375 C 14.382812 -18.148438 14.628906 -18.234375 14.921875 -18.234375 Z M 17.65625 -18.234375 "/></g></g></g><g fill="#f1be07" fill-opacity="1"><g transform="translate(335.438993, 205.12232)"><g><path d="M 5.4375 -15.53125 L 5.4375 -10.484375 L 11.8125 -10.484375 L 11.8125 -7.875 L 5.4375 -7.875 L 5.4375 -2.71875 L 13.53125 -2.71875 L 13.53125 0 L 2.03125 0 L 2.03125 -18.234375 L 13.53125 -18.234375 L 13.53125 -15.53125 Z M 5.4375 -15.53125 "/></g></g></g></svg>